<?xml version="1.0" encoding="utf-8"?>
<!-- Generator: Adobe Illustrator 22.1.0, SVG Export Plug-In . SVG Version: 6.00 Build 0)  -->
<svg version="1.1" id="Layer_1" xmlns="http://www.w3.org/2000/svg" xmlns:xlink="http://www.w3.org/1999/xlink" x="0px" y="0px"
	 viewBox="0 0 76.5 77.7" style="enable-background:new 0 0 76.5 77.7;" xml:space="preserve">
<style type="text/css">
	.st0{fill:#17181B;}
</style>
<path class="st0" d="M205.4,49.2c-9.3,6.4-21.4,7.2-31.5,2.1c-11.6-6.6-17.9-22-17.9-42.9v-64.3c0-30.9-12.2-52.8-32.7-58.8
	C88.8-124.8,63-82.5,53.1-66.6L-8,32.3V-88.4c-0.7-27.8-9.7-44.5-26.9-49.5c-11.3-3.3-28.3-2-44.8,23.2l-136.6,219.3
	C-234.5,69.9-244,31.2-243.8-8c0-132.2,105.6-239.7,235.8-239.7S228.1-140.2,228.1-8v0.7c0,0,0,0.5,0,0.7
	C229.4,18.9,221.1,39.3,205.4,49.2L205.4,49.2z M280.9-8v-1.3C279.8-170.3,150.6-301-8-301S-296.6-169.6-296.6-8S-167.2,285-8,285
	c73,0,143.2-28,196.2-78.2c10.7-10.1,11.3-26.9,1.4-37.7c-9.6-10.6-25.9-11.4-36.6-1.8c0,0-0.1,0.1-0.1,0.1
	c-93.5,88.7-241.2,84.8-329.9-8.7c-2.2-2.3-4.3-4.6-6.4-7L-60.5-46v91.2c0,43.8,17,58,31.2,62.2s36.1,1.3,58.9-35.8L97.6-38.4
	c2.1-3.5,4.1-6.6,6-9.2V8.3c0,41,16.4,73.7,45.3,89.9c26.7,14.4,59.1,13.1,84.6-3.4c31.7-20.6,49-57.9,47.2-102.8L280.9-8z"/>
</svg>
