<svg width="180" height="180" xmlns="http://www.w3.org/2000/svg" xmlns:xlink="http://www.w3.org/1999/xlink" xmlns:svgjs="http://svgjs.com/svgjs" viewBox="0 0 179.999 180" fill="#fff"><svg xmlns="http://www.w3.org/2000/svg" width="180" height="180" viewBox="0 0 179.097 179.098"><path paint-order="stroke fill markers" fill-rule="evenodd" d="M89.459 0C40.028 0-.001 40.118-.001 89.549c0 49.43 40.029 89.548 89.46 89.548 49.52 0 89.638-40.117 89.638-89.548 0-49.431-40.118-89.55-89.638-89.55zm.09 161.188c-39.58 0-71.64-32.059-71.64-71.64 0-39.58 32.06-71.638 71.64-71.638s71.639 32.058 71.639 71.639c0 39.58-32.06 71.639-71.64 71.639zm4.477-116.414H80.594v53.73l47.013 28.207 6.716-11.014-40.297-23.91V44.774z"/></svg></svg>