<svg width="38" height="35" xmlns="http://www.w3.org/2000/svg" xmlns:xlink="http://www.w3.org/1999/xlink" xmlns:svgjs="http://svgjs.com/svgjs" viewBox="864 469 38 35"><svg width="15" height="11" xmlns="http://www.w3.org/2000/svg" xmlns:xlink="http://www.w3.org/1999/xlink" xmlns:svgjs="http://svgjs.com/svgjs" viewBox="0.067 0 14.867 11" fill="#e17726" stroke-miterlimit="100" stroke-linecap="round" stroke="#e00e8b" stroke-width=".25" x="885" y="469"><svg xmlns="http://www.w3.org/2000/svg" xmlns:xlink="http://www.w3.org/1999/xlink" width="15" height="11" viewBox="0.268 0 14.594 10.798"><path paint-order="stroke fill markers" fill-rule="evenodd" d="M14.861 0L.268 10.798 2.98 4.434 14.861 0z"/></svg></svg><svg width="15" height="11" xmlns="http://www.w3.org/2000/svg" xmlns:xlink="http://www.w3.org/1999/xlink" xmlns:svgjs="http://svgjs.com/svgjs" viewBox="0.201 0 14.597 11" fill="#e27625" stroke-miterlimit="100" stroke-linecap="round" stroke="#e00e8b" stroke-width=".25" x="866" y="469"><svg xmlns="http://www.w3.org/2000/svg" xmlns:xlink="http://www.w3.org/1999/xlink" width="15" height="11" viewBox="0.2 0 14.463 10.899"><path paint-order="stroke fill markers" fill-rule="evenodd" d="M.2 0l14.463 10.899-2.583-6.465L.2 0z"/></svg></svg><svg width="12" height="9" xmlns="http://www.w3.org/2000/svg" xmlns:xlink="http://www.w3.org/1999/xlink" xmlns:svgjs="http://svgjs.com/svgjs" viewBox="0.145 0 11.709 9" fill="#e27625" stroke-miterlimit="100" stroke-linecap="round" stroke="#e00e8b" stroke-width=".25" x="890" y="494"><svg xmlns="http://www.w3.org/2000/svg" xmlns:xlink="http://www.w3.org/1999/xlink" width="12" height="9" viewBox="0.724 0.037 10.696 8.221"><path paint-order="stroke fill markers" fill-rule="evenodd" d="M4.607.037L.724 5.97l8.314 2.289L11.42.167 4.607.037z"/></svg></svg><svg width="12" height="9" xmlns="http://www.w3.org/2000/svg" xmlns:xlink="http://www.w3.org/1999/xlink" xmlns:svgjs="http://svgjs.com/svgjs" viewBox="0.161 0 11.678 9" fill="#e27625" stroke-miterlimit="100" stroke-linecap="round" stroke="#e00e8b" stroke-width=".25" x="864" y="494"><svg xmlns="http://www.w3.org/2000/svg" xmlns:xlink="http://www.w3.org/1999/xlink" width="12" height="9" viewBox="0.655 0.037 10.667 8.221"><path paint-order="stroke fill markers" fill-rule="evenodd" d="M.655.167l2.367 8.091 8.3-2.29L7.453.039.655.166z"/></svg></svg><svg width="9" height="9" xmlns="http://www.w3.org/2000/svg" xmlns:xlink="http://www.w3.org/1999/xlink" xmlns:svgjs="http://svgjs.com/svgjs" viewBox="0.318 0 8.363 9" fill="#e27625" stroke-miterlimit="100" stroke-linecap="round" stroke="#e00e8b" stroke-width=".25" x="872" y="479"><svg xmlns="http://www.w3.org/2000/svg" xmlns:xlink="http://www.w3.org/1999/xlink" width="9" height="9" viewBox="0.565 0.021 8.228 8.854"><path paint-order="stroke fill markers" fill-rule="evenodd" d="M2.875 5.017L.565 8.502l8.228.374L8.518.02 2.875 5.017z"/></svg></svg><svg width="9" height="10" xmlns="http://www.w3.org/2000/svg" xmlns:xlink="http://www.w3.org/1999/xlink" xmlns:svgjs="http://svgjs.com/svgjs" viewBox="0 0.102 9 9.796" fill="#e27625" stroke-miterlimit="100" stroke-linecap="round" stroke="#e00e8b" stroke-width=".25" x="885" y="478"><svg xmlns="http://www.w3.org/2000/svg" xmlns:xlink="http://www.w3.org/1999/xlink" width="9" height="10" viewBox="0.268 0.92 8.228 8.955"><path paint-order="stroke fill markers" fill-rule="evenodd" d="M6.186 6.017L.455.92.268 9.875l8.227-.374-2.31-3.484z"/></svg></svg><svg width="6" height="6" xmlns="http://www.w3.org/2000/svg" xmlns:xlink="http://www.w3.org/1999/xlink" xmlns:svgjs="http://svgjs.com/svgjs" viewBox="0.399 0 5.201 6" fill="#e27625" stroke-miterlimit="100" stroke-linecap="round" stroke="#e00e8b" stroke-width=".25" x="875" y="494"><svg xmlns="http://www.w3.org/2000/svg" xmlns:xlink="http://www.w3.org/1999/xlink" width="6" height="6" viewBox="0.323 0.225 4.98 5.745"><path paint-order="stroke fill markers" fill-rule="evenodd" d="M.323 5.97l4.98-2.405L1.015.225.323 5.969z"/></svg></svg><svg width="6" height="6" xmlns="http://www.w3.org/2000/svg" xmlns:xlink="http://www.w3.org/1999/xlink" xmlns:svgjs="http://svgjs.com/svgjs" viewBox="0.407 0 5.186 6" fill="#e27625" stroke-miterlimit="100" stroke-linecap="round" stroke="#e00e8b" stroke-width=".25" x="885" y="494"><svg xmlns="http://www.w3.org/2000/svg" xmlns:xlink="http://www.w3.org/1999/xlink" width="6" height="6" viewBox="0.758 0.225 4.966 5.745"><path paint-order="stroke fill markers" fill-rule="evenodd" d="M.758 3.565l4.966 2.404L5.046.225.758 3.565z"/></svg></svg><svg width="6" height="6" xmlns="http://www.w3.org/2000/svg" xmlns:xlink="http://www.w3.org/1999/xlink" xmlns:svgjs="http://svgjs.com/svgjs" viewBox="0 0.225 6 5.55" fill="#d5bfb2" stroke-miterlimit="100" stroke-linecap="round" stroke="#e00e8b" stroke-width=".25" x="885" y="497"><svg xmlns="http://www.w3.org/2000/svg" xmlns:xlink="http://www.w3.org/1999/xlink" width="6" height="6" viewBox="0.758 0.565 4.966 4.593"><path paint-order="stroke fill markers" fill-rule="evenodd" d="M5.724 2.97L.758.565l.404 3.225-.042 1.368L5.724 2.97z"/></svg></svg><svg width="6" height="6" xmlns="http://www.w3.org/2000/svg" xmlns:xlink="http://www.w3.org/1999/xlink" xmlns:svgjs="http://svgjs.com/svgjs" viewBox="0 0.233 6 5.534" fill="#d5bfb2" stroke-miterlimit="100" stroke-linecap="round" stroke="#e00e8b" stroke-width=".25" x="875" y="497"><svg xmlns="http://www.w3.org/2000/svg" xmlns:xlink="http://www.w3.org/1999/xlink" width="6" height="6" viewBox="0.323 0.565 4.98 4.593"><path paint-order="stroke fill markers" fill-rule="evenodd" d="M.323 2.97L4.94 5.158 4.913 3.79l.39-3.225L.323 2.97z"/></svg></svg><svg width="6" height="4" xmlns="http://www.w3.org/2000/svg" xmlns:xlink="http://www.w3.org/1999/xlink" xmlns:svgjs="http://svgjs.com/svgjs" viewBox="0 0.148 6 3.704" fill="#233447" stroke-miterlimit="100" stroke-linecap="round" stroke="#e00e8b" stroke-width=".25" x="875" y="489"><svg xmlns="http://www.w3.org/2000/svg" xmlns:xlink="http://www.w3.org/1999/xlink" width="6" height="4" viewBox="0.9 0.546 4.128 2.548"><path paint-order="stroke fill markers" fill-rule="evenodd" d="M5.028 3.094L.9 1.884 3.816.547l1.212 2.548z"/></svg></svg><svg width="5" height="4" xmlns="http://www.w3.org/2000/svg" xmlns:xlink="http://www.w3.org/1999/xlink" xmlns:svgjs="http://svgjs.com/svgjs" viewBox="0 0.462 5 3.076" fill="#233447" stroke-miterlimit="100" stroke-linecap="round" stroke="#e00e8b" stroke-width=".25" x="886" y="489"><svg xmlns="http://www.w3.org/2000/svg" xmlns:xlink="http://www.w3.org/1999/xlink" width="5" height="4" viewBox="0.033 0.546 4.143 2.548"><path paint-order="stroke fill markers" fill-rule="evenodd" d="M.033 3.094L1.245.546l2.93 1.339-4.142 1.21z"/></svg></svg><svg width="6" height="6" xmlns="http://www.w3.org/2000/svg" xmlns:xlink="http://www.w3.org/1999/xlink" xmlns:svgjs="http://svgjs.com/svgjs" viewBox="0.679 0 4.643 6" fill="#cc6228" stroke-miterlimit="100" stroke-linecap="round" stroke="#e00e8b" stroke-width=".25" x="871" y="494"><svg xmlns="http://www.w3.org/2000/svg" xmlns:xlink="http://www.w3.org/1999/xlink" width="6" height="6" viewBox="0.454 0.037 4.59 5.932"><path paint-order="stroke fill markers" fill-rule="evenodd" d="M4.322 5.969L5.044.037l-4.59.13 3.868 5.802z"/></svg></svg><svg width="5" height="6" xmlns="http://www.w3.org/2000/svg" xmlns:xlink="http://www.w3.org/1999/xlink" xmlns:svgjs="http://svgjs.com/svgjs" viewBox="0.179 0 4.643 6" fill="#cc6228" stroke-miterlimit="100" stroke-linecap="round" stroke="#e00e8b" stroke-width=".25" x="890" y="494"><svg xmlns="http://www.w3.org/2000/svg" xmlns:xlink="http://www.w3.org/1999/xlink" width="5" height="6" viewBox="0.017 0.037 4.59 5.932"><path paint-order="stroke fill markers" fill-rule="evenodd" d="M.017.037L.724 5.97 4.607.167.017.037z"/></svg></svg><svg width="9" height="6" xmlns="http://www.w3.org/2000/svg" xmlns:xlink="http://www.w3.org/1999/xlink" xmlns:svgjs="http://svgjs.com/svgjs" viewBox="0 0.488 9 5.024" fill="#cc6228" stroke-miterlimit="100" stroke-linecap="round" stroke="#e00e8b" stroke-width=".25" x="885" y="487"><svg xmlns="http://www.w3.org/2000/svg" xmlns:xlink="http://www.w3.org/1999/xlink" width="9" height="6" viewBox="0.268 0.501 8.228 4.593"><path paint-order="stroke fill markers" fill-rule="evenodd" d="M8.495.501L.268.875l.765 4.219 1.212-2.549 2.93 1.34L8.496.5z"/></svg></svg><svg width="9" height="6" xmlns="http://www.w3.org/2000/svg" xmlns:xlink="http://www.w3.org/1999/xlink" xmlns:svgjs="http://svgjs.com/svgjs" viewBox="0 0.488 9 5.024" fill="#cc6228" stroke-miterlimit="100" stroke-linecap="round" stroke="#e00e8b" stroke-width=".25" x="872" y="487"><svg xmlns="http://www.w3.org/2000/svg" xmlns:xlink="http://www.w3.org/1999/xlink" width="9" height="6" viewBox="0.565 0.501 8.228 4.593"><path paint-order="stroke fill markers" fill-rule="evenodd" d="M3.9 3.884l2.915-1.339 1.213 2.549.765-4.219L.565.501 3.9 3.884z"/></svg></svg><svg width="5" height="8" xmlns="http://www.w3.org/2000/svg" xmlns:xlink="http://www.w3.org/1999/xlink" xmlns:svgjs="http://svgjs.com/svgjs" viewBox="0.448 0 4.104 8" fill="#e27525" stroke-miterlimit="100" stroke-linecap="round" stroke="#e00e8b" stroke-width=".25" x="872" y="487"><svg xmlns="http://www.w3.org/2000/svg" xmlns:xlink="http://www.w3.org/1999/xlink" width="5" height="8" viewBox="0.565 0.501 3.45 6.724"><path paint-order="stroke fill markers" fill-rule="evenodd" d="M.565.501l3.45 6.724-.115-3.34L.565.5z"/></svg></svg><svg width="4" height="8" xmlns="http://www.w3.org/2000/svg" xmlns:xlink="http://www.w3.org/1999/xlink" xmlns:svgjs="http://svgjs.com/svgjs" viewBox="0 0.102 4 7.796" fill="#e27525" stroke-miterlimit="100" stroke-linecap="round" stroke="#e00e8b" stroke-width=".25" x="890" y="487"><svg xmlns="http://www.w3.org/2000/svg" xmlns:xlink="http://www.w3.org/1999/xlink" width="4" height="8" viewBox="0.046 0.501 3.45 6.724"><path paint-order="stroke fill markers" fill-rule="evenodd" d="M.176 3.884l-.13 3.34L3.496.502.175 3.884z"/></svg></svg><svg width="2" height="11" xmlns="http://www.w3.org/2000/svg" xmlns:xlink="http://www.w3.org/1999/xlink" xmlns:svgjs="http://svgjs.com/svgjs" viewBox="0.293 0 1.415 11" fill="#e27525" stroke-miterlimit="100" stroke-linecap="round" stroke="#e00e8b" stroke-width=".25" x="880" y="487"><svg xmlns="http://www.w3.org/2000/svg" xmlns:xlink="http://www.w3.org/1999/xlink" width="2" height="11" viewBox="0.028 0.875 1.183 9.2"><path paint-order="stroke fill markers" fill-rule="evenodd" d="M.793.875L.028 5.094l.968 4.98.216-6.564L.793.875z"/></svg></svg><svg width="3" height="11" xmlns="http://www.w3.org/2000/svg" xmlns:xlink="http://www.w3.org/1999/xlink" xmlns:svgjs="http://svgjs.com/svgjs" viewBox="0.801 0 1.398 11" fill="#e27525" stroke-miterlimit="100" stroke-linecap="round" stroke="#e00e8b" stroke-width=".25" x="884" y="487"><svg xmlns="http://www.w3.org/2000/svg" xmlns:xlink="http://www.w3.org/1999/xlink" width="3" height="11" viewBox="0.864 0.875 1.169 9.2"><path paint-order="stroke fill markers" fill-rule="evenodd" d="M1.268.875l-.404 2.62.202 6.58.967-4.981L1.268.875z"/></svg></svg><svg width="6" height="8" xmlns="http://www.w3.org/2000/svg" xmlns:xlink="http://www.w3.org/1999/xlink" xmlns:svgjs="http://svgjs.com/svgjs" viewBox="0 0.078 6 7.844" fill="#f5841f" stroke-miterlimit="100" stroke-linecap="round" stroke="#e00e8b" stroke-width=".25" x="885" y="490"><svg xmlns="http://www.w3.org/2000/svg" xmlns:xlink="http://www.w3.org/1999/xlink" width="6" height="8" viewBox="0.066 0.885 5.11 6.68"><path paint-order="stroke fill markers" fill-rule="evenodd" d="M1.033 2.094L.066 7.076l.692.49 4.288-3.341.13-3.34-4.143 1.21z"/></svg></svg><svg width="6" height="8" xmlns="http://www.w3.org/2000/svg" xmlns:xlink="http://www.w3.org/1999/xlink" xmlns:svgjs="http://svgjs.com/svgjs" viewBox="0 0.067 6 7.866" fill="#f5841f" stroke-miterlimit="100" stroke-linecap="round" stroke="#e00e8b" stroke-width=".25" x="875" y="490"><svg xmlns="http://www.w3.org/2000/svg" xmlns:xlink="http://www.w3.org/1999/xlink" width="6" height="8" viewBox="0.9 0.885 5.095 6.68"><path paint-order="stroke fill markers" fill-rule="evenodd" d="M.9.885l.115 3.34 4.287 3.34.693-.49-.967-4.98L.9.884z"/></svg></svg><svg width="16" height="5" xmlns="http://www.w3.org/2000/svg" xmlns:xlink="http://www.w3.org/1999/xlink" xmlns:svgjs="http://svgjs.com/svgjs" viewBox="0 0.638 16 3.724" fill="#c0ac9d" stroke-miterlimit="100" stroke-linecap="round" stroke="#e00e8b" stroke-width=".25" x="875" y="499"><svg xmlns="http://www.w3.org/2000/svg" xmlns:xlink="http://www.w3.org/1999/xlink" width="16" height="5" viewBox="0.323 0.97 15.402 3.585"><path paint-order="stroke fill markers" fill-rule="evenodd" d="M11.12 3.158l.043-1.368-.375-.316H5.273l-.36.316.028 1.368L.323.97l1.616 1.324 3.277 2.26h5.615l3.29-2.26L15.725.97 11.12 3.158z"/></svg></svg><svg width="8" height="4" xmlns="http://www.w3.org/2000/svg" xmlns:xlink="http://www.w3.org/1999/xlink" xmlns:svgjs="http://svgjs.com/svgjs" viewBox="0.635 0 6.73 4" fill="#161616" stroke-miterlimit="100" stroke-linecap="round" stroke="#e00e8b" stroke-width=".25" x="879" y="497"><svg xmlns="http://www.w3.org/2000/svg" xmlns:xlink="http://www.w3.org/1999/xlink" width="8" height="4" viewBox="0.913 0.075 6.25 3.715"><path paint-order="stroke fill markers" fill-rule="evenodd" d="M6.758.565l-.692-.49h-4.07l-.693.49-.39 3.225.36-.317h5.515l.375.317L6.758.565z"/></svg></svg><svg width="17" height="18" xmlns="http://www.w3.org/2000/svg" xmlns:xlink="http://www.w3.org/1999/xlink" xmlns:svgjs="http://svgjs.com/svgjs" viewBox="0.177 0 16.645 18" fill="#763e1a" stroke-miterlimit="100" stroke-linecap="round" stroke="#e00e8b" stroke-width=".25" x="885" y="469"><svg xmlns="http://www.w3.org/2000/svg" xmlns:xlink="http://www.w3.org/1999/xlink" width="17" height="18" viewBox="0.758 0 15.95 17.248"><path paint-order="stroke fill markers" fill-rule="evenodd" d="M15.482 11.504l1.226-5.961L14.861 0 .758 10.438l5.428 4.579 7.665 2.231 1.688-1.972-.736-.533 1.17-1.065-.895-.691 1.169-.893-.765-.59z"/></svg></svg><svg width="17" height="18" xmlns="http://www.w3.org/2000/svg" xmlns:xlink="http://www.w3.org/1999/xlink" xmlns:svgjs="http://svgjs.com/svgjs" viewBox="0.177 0 16.645 18" fill="#763e1a" stroke-miterlimit="100" stroke-linecap="round" stroke="#e00e8b" stroke-width=".25" x="864" y="469"><svg xmlns="http://www.w3.org/2000/svg" xmlns:xlink="http://www.w3.org/1999/xlink" width="17" height="18" viewBox="0.352 0 15.95 17.248"><path paint-order="stroke fill markers" fill-rule="evenodd" d="M.352 5.543l1.242 5.96-.795.59 1.184.894-.895.69 1.17 1.066-.737.533 1.69 1.972 7.664-2.231 5.427-4.579L2.2 0 .352 5.543z"/></svg></svg><svg width="12" height="11" xmlns="http://www.w3.org/2000/svg" xmlns:xlink="http://www.w3.org/1999/xlink" xmlns:svgjs="http://svgjs.com/svgjs" viewBox="0 0.115 12 10.77" fill="#f5841f" stroke-miterlimit="100" stroke-linecap="round" stroke="#e00e8b" stroke-width=".25" x="890" y="484"><svg xmlns="http://www.w3.org/2000/svg" xmlns:xlink="http://www.w3.org/1999/xlink" width="12" height="11" viewBox="0.046 0.017 11.374 10.208"><path paint-order="stroke fill markers" fill-rule="evenodd" d="M8.85 2.248L1.187.017 3.496 3.5l-3.45 6.723 4.56-.057h6.814L8.85 2.248z"/></svg></svg><svg width="13" height="11" xmlns="http://www.w3.org/2000/svg" xmlns:xlink="http://www.w3.org/1999/xlink" xmlns:svgjs="http://svgjs.com/svgjs" viewBox="0.379 0 12.242 11" fill="#f5841f" stroke-miterlimit="100" stroke-linecap="round" stroke="#e00e8b" stroke-width=".25" x="864" y="484"><svg xmlns="http://www.w3.org/2000/svg" xmlns:xlink="http://www.w3.org/1999/xlink" width="13" height="11" viewBox="0.655 0.017 11.36 10.208"><path paint-order="stroke fill markers" fill-rule="evenodd" d="M10.875.017L3.21 2.248.655 10.167h6.798l4.562.057-3.45-6.723 2.31-3.484z"/></svg></svg><svg width="10" height="25" xmlns="http://www.w3.org/2000/svg" xmlns:xlink="http://www.w3.org/1999/xlink" xmlns:svgjs="http://svgjs.com/svgjs" viewBox="0 0.563 10 23.874" fill="#f5841f" stroke-miterlimit="100" stroke-linecap="round" stroke="#e00e8b" stroke-width=".25" x="878" y="473"><svg xmlns="http://www.w3.org/2000/svg" width="10" height="25" viewBox="0.079 0.435 9.902 23.641"><path paint-order="stroke fill markers" fill-rule="evenodd" d="M7.268 14.875l.49-8.437L9.981.435H.08l2.223 6.003.49 8.437.189 2.65.014 6.55h4.07l.015-6.55.188-2.65z"/></svg></svg></svg>